<svg width="59" height="15" viewBox="0 0 59 15" fill="none" xmlns="http://www.w3.org/2000/svg">
<path d="M0.715909 10.0682V7.875L5.48295 0.363636H7.43182V3.34091H6.30114L3.51136 7.76136V7.85227H10.4148V10.0682H0.715909ZM6.33523 12V9.39773L6.39205 8.4375V0.363636H9.02273V12H6.33523ZM16.3438 12.1591C15.4953 12.1591 14.7415 12.0057 14.0824 11.6989C13.4233 11.392 12.9025 10.9697 12.5199 10.4318C12.1411 9.89394 11.9441 9.27652 11.929 8.57955H14.6562C14.679 9.00758 14.8532 9.35227 15.179 9.61364C15.5047 9.87121 15.893 10 16.3438 10C16.696 10 17.0085 9.92235 17.2812 9.76705C17.554 9.61174 17.768 9.39394 17.9233 9.11364C18.0786 8.82955 18.1544 8.50379 18.1506 8.13636C18.1544 7.76136 18.0767 7.43371 17.9176 7.15341C17.7623 6.87311 17.5464 6.6553 17.2699 6.5C16.9972 6.34091 16.6828 6.26136 16.3267 6.26136C15.9896 6.25758 15.6695 6.33144 15.3665 6.48295C15.0672 6.63447 14.84 6.84091 14.6847 7.10227L12.2017 6.63636L12.7074 0.363636H20.1733V2.63068H15.0199L14.7528 5.375H14.821C15.0142 5.05303 15.3248 4.78788 15.7528 4.57955C16.1847 4.36742 16.6752 4.26136 17.2244 4.26136C17.9214 4.26136 18.5426 4.42424 19.0881 4.75C19.6373 5.07197 20.0691 5.51894 20.3835 6.09091C20.7017 6.66288 20.8608 7.31818 20.8608 8.05682C20.8608 8.85606 20.6714 9.56439 20.2926 10.1818C19.9176 10.7992 19.3911 11.2841 18.7131 11.6364C18.0388 11.9848 17.2491 12.1591 16.3438 12.1591ZM24.919 10.4091L24.8679 11.0398C24.8224 11.5625 24.7296 12.072 24.5895 12.5682C24.4531 13.0682 24.3073 13.517 24.152 13.9148C23.9967 14.3125 23.8736 14.6212 23.7827 14.8409H22.0327C22.0933 14.6212 22.1747 14.3125 22.277 13.9148C22.383 13.517 22.4815 13.0682 22.5724 12.5682C22.6634 12.0682 22.7145 11.5606 22.7259 11.0455L22.7372 10.4091H24.919ZM31.3423 12.2841C30.3272 12.2841 29.4522 12.0436 28.7173 11.5625C27.9825 11.0777 27.4162 10.3826 27.0185 9.47727C26.6207 8.56818 26.4238 7.47538 26.4276 6.19886C26.4313 4.92235 26.6302 3.83901 27.0241 2.94886C27.4219 2.05492 27.9863 1.375 28.7173 0.909091C29.4522 0.439394 30.3272 0.204545 31.3423 0.204545C32.3575 0.204545 33.2325 0.439394 33.9673 0.909091C34.706 1.375 35.2741 2.05492 35.6719 2.94886C36.0696 3.8428 36.2666 4.92614 36.2628 6.19886C36.2628 7.47917 36.0639 8.57386 35.6662 9.48295C35.2685 10.392 34.7022 11.0871 33.9673 11.5682C33.2363 12.0455 32.3613 12.2841 31.3423 12.2841ZM31.3423 9.98295C31.9484 9.98295 32.4389 9.67424 32.8139 9.05682C33.1889 8.43561 33.3745 7.48295 33.3707 6.19886C33.3707 5.35795 33.2855 4.66477 33.1151 4.11932C32.9446 3.57008 32.7079 3.16098 32.4048 2.89205C32.1018 2.62311 31.7476 2.48864 31.3423 2.48864C30.7401 2.48864 30.2533 2.79356 29.8821 3.40341C29.5109 4.00947 29.3234 4.94129 29.3196 6.19886C29.3158 7.05114 29.3973 7.75758 29.5639 8.31818C29.7344 8.87879 29.973 9.29735 30.2798 9.57386C30.5866 9.84659 30.9408 9.98295 31.3423 9.98295ZM42.6861 12.2841C41.6709 12.2841 40.7959 12.0436 40.0611 11.5625C39.3262 11.0777 38.7599 10.3826 38.3622 9.47727C37.9645 8.56818 37.7675 7.47538 37.7713 6.19886C37.7751 4.92235 37.974 3.83901 38.3679 2.94886C38.7656 2.05492 39.33 1.375 40.0611 0.909091C40.7959 0.439394 41.6709 0.204545 42.6861 0.204545C43.7012 0.204545 44.5762 0.439394 45.3111 0.909091C46.0497 1.375 46.6179 2.05492 47.0156 2.94886C47.4134 3.8428 47.6103 4.92614 47.6065 6.19886C47.6065 7.47917 47.4077 8.57386 47.0099 9.48295C46.6122 10.392 46.0459 11.0871 45.3111 11.5682C44.58 12.0455 43.705 12.2841 42.6861 12.2841ZM42.6861 9.98295C43.2921 9.98295 43.7827 9.67424 44.1577 9.05682C44.5327 8.43561 44.7183 7.48295 44.7145 6.19886C44.7145 5.35795 44.6293 4.66477 44.4588 4.11932C44.2884 3.57008 44.0516 3.16098 43.7486 2.89205C43.4455 2.62311 43.0914 2.48864 42.6861 2.48864C42.0838 2.48864 41.5971 2.79356 41.2259 3.40341C40.8546 4.00947 40.6671 4.94129 40.6634 6.19886C40.6596 7.05114 40.741 7.75758 40.9077 8.31818C41.0781 8.87879 41.3168 9.29735 41.6236 9.57386C41.9304 9.84659 42.2846 9.98295 42.6861 9.98295ZM54.0298 12.2841C53.0147 12.2841 52.1397 12.0436 51.4048 11.5625C50.67 11.0777 50.1037 10.3826 49.706 9.47727C49.3082 8.56818 49.1113 7.47538 49.1151 6.19886C49.1188 4.92235 49.3177 3.83901 49.7116 2.94886C50.1094 2.05492 50.6738 1.375 51.4048 0.909091C52.1397 0.439394 53.0147 0.204545 54.0298 0.204545C55.045 0.204545 55.92 0.439394 56.6548 0.909091C57.3935 1.375 57.9616 2.05492 58.3594 2.94886C58.7571 3.8428 58.9541 4.92614 58.9503 6.19886C58.9503 7.47917 58.7514 8.57386 58.3537 9.48295C57.956 10.392 57.3897 11.0871 56.6548 11.5682C55.9238 12.0455 55.0488 12.2841 54.0298 12.2841ZM54.0298 9.98295C54.6359 9.98295 55.1264 9.67424 55.5014 9.05682C55.8764 8.43561 56.062 7.48295 56.0582 6.19886C56.0582 5.35795 55.973 4.66477 55.8026 4.11932C55.6321 3.57008 55.3954 3.16098 55.0923 2.89205C54.7893 2.62311 54.4351 2.48864 54.0298 2.48864C53.4276 2.48864 52.9408 2.79356 52.5696 3.40341C52.1984 4.00947 52.0109 4.94129 52.0071 6.19886C52.0033 7.05114 52.0848 7.75758 52.2514 8.31818C52.4219 8.87879 52.6605 9.29735 52.9673 9.57386C53.2741 9.84659 53.6283 9.98295 54.0298 9.98295Z" fill="black"/>
</svg>
