<svg width="41" height="11" viewBox="0 0 41 11" fill="none" xmlns="http://www.w3.org/2000/svg">
<path d="M3.44731 8.97447C2.87129 8.97447 2.35776 8.8685 1.90672 8.65657C1.4584 8.44464 1.10246 8.15255 0.838897 7.7803C0.575338 7.40806 0.438124 6.98148 0.427256 6.50055H2.13903C2.15805 6.82388 2.2939 7.08608 2.54659 7.28715C2.79928 7.48822 3.09952 7.58875 3.44731 7.58875C3.72446 7.58875 3.969 7.52761 4.18093 7.40534C4.39558 7.28036 4.56268 7.10782 4.68224 6.88774C4.80451 6.66493 4.86564 6.40953 4.86564 6.12151C4.86564 5.82807 4.80315 5.56994 4.67816 5.34714C4.55589 5.12434 4.38607 4.95044 4.1687 4.82546C3.95134 4.70047 3.70272 4.63662 3.42286 4.6339C3.17832 4.6339 2.94057 4.68417 2.70962 4.7847C2.48138 4.88523 2.30341 5.02245 2.17571 5.19634L0.606584 4.91512L1.00192 0.513417H6.10464V1.9562H2.45693L2.24092 4.04701H2.28983C2.43655 3.84051 2.658 3.66933 2.95416 3.53347C3.25032 3.39762 3.58181 3.32969 3.94862 3.32969C4.45128 3.32969 4.8996 3.44789 5.29358 3.68427C5.68756 3.92066 5.99867 4.24536 6.22691 4.65835C6.45514 5.06864 6.5679 5.54141 6.56519 6.07668C6.5679 6.63912 6.43748 7.13907 6.17392 7.57652C5.91308 8.01126 5.54763 8.35361 5.07757 8.60359C4.61023 8.85084 4.06681 8.97447 3.44731 8.97447ZM10.8446 8.97447C10.2686 8.97447 9.75506 8.8685 9.30402 8.65657C8.8557 8.44464 8.49976 8.15255 8.2362 7.7803C7.97265 7.40806 7.83543 6.98148 7.82456 6.50055H9.53634C9.55536 6.82388 9.69121 7.08608 9.9439 7.28715C10.1966 7.48822 10.4968 7.58875 10.8446 7.58875C11.1218 7.58875 11.3663 7.52761 11.5782 7.40534C11.7929 7.28036 11.96 7.10782 12.0795 6.88774C12.2018 6.66493 12.2629 6.40953 12.2629 6.12151C12.2629 5.82807 12.2005 5.56994 12.0755 5.34714C11.9532 5.12434 11.7834 4.95044 11.566 4.82546C11.3486 4.70047 11.1 4.63662 10.8202 4.6339C10.5756 4.6339 10.3379 4.68417 10.1069 4.7847C9.87869 4.88523 9.70072 5.02245 9.57302 5.19634L8.00389 4.91512L8.39923 0.513417H13.5019V1.9562H9.85424L9.63823 4.04701H9.68714C9.83386 3.84051 10.0553 3.66933 10.3515 3.53347C10.6476 3.39762 10.9791 3.32969 11.3459 3.32969C11.8486 3.32969 12.2969 3.44789 12.6909 3.68427C13.0849 3.92066 13.396 4.24536 13.6242 4.65835C13.8525 5.06864 13.9652 5.54141 13.9625 6.07668C13.9652 6.63912 13.8348 7.13907 13.5712 7.57652C13.3104 8.01126 12.9449 8.35361 12.4749 8.60359C12.0075 8.85084 11.4641 8.97447 10.8446 8.97447ZM16.8277 7.71917L16.7828 8.16749C16.7475 8.52615 16.6796 8.88345 16.5791 9.23939C16.4812 9.59804 16.378 9.92274 16.2693 10.2135C16.1633 10.5042 16.0778 10.7324 16.0125 10.8982H14.8877C14.9284 10.7379 14.9841 10.5137 15.0548 10.2257C15.1254 9.9404 15.192 9.61978 15.2545 9.26384C15.317 8.9079 15.3564 8.54517 15.3727 8.17564L15.393 7.71917H16.8277ZM21.3353 9.04376C20.6343 9.04104 20.0311 8.8685 19.5258 8.52615C19.0231 8.18379 18.6359 7.68792 18.3642 7.03854C18.0952 6.38915 17.9621 5.60798 17.9648 4.69504C17.9648 3.78481 18.0993 3.00907 18.3683 2.36784C18.64 1.7266 19.0272 1.23888 19.5298 0.90468C20.0352 0.567759 20.6371 0.399299 21.3353 0.399299C22.0336 0.399299 22.6341 0.567759 23.1368 0.90468C23.6422 1.2416 24.0307 1.73068 24.3024 2.37191C24.5741 3.01043 24.7086 3.78481 24.7059 4.69504C24.7059 5.6107 24.5701 6.39322 24.2983 7.04261C24.0294 7.692 23.6435 8.18787 23.1409 8.53022C22.6382 8.87258 22.0364 9.04376 21.3353 9.04376ZM21.3353 7.5806C21.8136 7.5806 22.1953 7.34013 22.4806 6.85921C22.7659 6.37828 22.9072 5.65689 22.9045 4.69504C22.9045 4.06195 22.8393 3.53483 22.7088 3.11368C22.5811 2.69253 22.3991 2.37599 22.1627 2.16406C21.929 1.95212 21.6532 1.84616 21.3353 1.84616C20.8599 1.84616 20.4795 2.0839 20.1942 2.55939C19.9089 3.03489 19.7649 3.74677 19.7621 4.69504C19.7621 5.33627 19.826 5.87154 19.9537 6.30084C20.0841 6.72743 20.2675 7.04805 20.5039 7.2627C20.7403 7.47463 21.0174 7.5806 21.3353 7.5806ZM29.237 9.04376C28.536 9.04104 27.9328 8.8685 27.4274 8.52615C26.9248 8.18379 26.5376 7.68792 26.2659 7.03854C25.9969 6.38915 25.8637 5.60798 25.8665 4.69504C25.8665 3.78481 26.0009 3.00907 26.2699 2.36784C26.5417 1.7266 26.9288 1.23888 27.4315 0.90468C27.9369 0.567759 28.5387 0.399299 29.237 0.399299C29.9353 0.399299 30.5358 0.567759 31.0385 0.90468C31.5438 1.2416 31.9324 1.73068 32.2041 2.37191C32.4758 3.01043 32.6103 3.78481 32.6076 4.69504C32.6076 5.6107 32.4717 6.39322 32.2 7.04261C31.931 7.692 31.5452 8.18787 31.0425 8.53022C30.5399 8.87258 29.938 9.04376 29.237 9.04376ZM29.237 7.5806C29.7152 7.5806 30.097 7.34013 30.3823 6.85921C30.6676 6.37828 30.8089 5.65689 30.8061 4.69504C30.8061 4.06195 30.7409 3.53483 30.6105 3.11368C30.4828 2.69253 30.3008 2.37599 30.0644 2.16406C29.8307 1.95212 29.5549 1.84616 29.237 1.84616C28.7615 1.84616 28.3811 2.0839 28.0958 2.55939C27.8105 3.03489 27.6665 3.74677 27.6638 4.69504C27.6638 5.33627 27.7277 5.87154 27.8554 6.30084C27.9858 6.72743 28.1692 7.04805 28.4056 7.2627C28.642 7.47463 28.9191 7.5806 29.237 7.5806ZM37.1387 9.04376C36.4377 9.04104 35.8345 8.8685 35.3291 8.52615C34.8264 8.18379 34.4392 7.68792 34.1675 7.03854C33.8985 6.38915 33.7654 5.60798 33.7681 4.69504C33.7681 3.78481 33.9026 3.00907 34.1716 2.36784C34.4433 1.7266 34.8305 1.23888 35.3332 0.90468C35.8386 0.567759 36.4404 0.399299 37.1387 0.399299C37.837 0.399299 38.4375 0.567759 38.9401 0.90468C39.4455 1.2416 39.8341 1.73068 40.1058 2.37191C40.3775 3.01043 40.512 3.78481 40.5093 4.69504C40.5093 5.6107 40.3734 6.39322 40.1017 7.04261C39.8327 7.692 39.4469 8.18787 38.9442 8.53022C38.4415 8.87258 37.8397 9.04376 37.1387 9.04376ZM37.1387 7.5806C37.6169 7.5806 37.9986 7.34013 38.2839 6.85921C38.5692 6.37828 38.7105 5.65689 38.7078 4.69504C38.7078 4.06195 38.6426 3.53483 38.5122 3.11368C38.3845 2.69253 38.2024 2.37599 37.966 2.16406C37.7324 1.95212 37.4566 1.84616 37.1387 1.84616C36.6632 1.84616 36.2828 2.0839 35.9975 2.55939C35.7122 3.03489 35.5682 3.74677 35.5655 4.69504C35.5655 5.33627 35.6293 5.87154 35.757 6.30084C35.8875 6.72743 36.0709 7.04805 36.3073 7.2627C36.5436 7.47463 36.8208 7.5806 37.1387 7.5806Z" fill="#AFAFAF"/>
<path d="M-0.277832 5.1026H41.088V5.88513H-0.277832V5.1026Z" fill="#AFAFAF"/>
</svg>
