<svg width="107" height="20" viewBox="0 0 107 20" fill="none" xmlns="http://www.w3.org/2000/svg">
<path d="M10 0L12.2451 6.90983H19.5106L13.6327 11.1803L15.8779 18.0902L10 13.8197L4.12215 18.0902L6.36729 11.1803L0.489435 6.90983H7.75486L10 0Z" fill="#FCBF0C"/>
<path d="M31 0L33.2451 6.90983H40.5106L34.6327 11.1803L36.8779 18.0902L31 13.8197L25.1221 18.0902L27.3673 11.1803L21.4894 6.90983H28.7549L31 0Z" fill="#FCBF0C"/>
<path d="M53 0L55.2451 6.90983H62.5106L56.6327 11.1803L58.8779 18.0902L53 13.8197L47.1221 18.0902L49.3673 11.1803L43.4894 6.90983H50.7549L53 0Z" fill="#FCBF0C"/>
<path d="M75 0L77.2451 6.90983H84.5106L78.6327 11.1803L80.8779 18.0902L75 13.8197L69.1221 18.0902L71.3673 11.1803L65.4894 6.90983H72.7549L75 0Z" fill="#FCBF0C"/>
<path d="M97 0L99.2451 6.90983H106.511L100.633 11.1803L102.878 18.0902L97 13.8197L91.1221 18.0902L93.3673 11.1803L87.4894 6.90983H94.7549L97 0Z" fill="#FCBF0C"/>
</svg>
